<svg xmlns="http://www.w3.org/2000/svg" viewBox="0 0 20.51 31.47"><defs><style>.cls-1{fill:#e52421;}.cls-2{fill:#fff;}</style></defs><title>Logo VM</title><g id="Calque_1" data-name="Calque 1"><path class="cls-1" d="M10.28,24.15l5.15-6.37c-.33-.85-.86-2.3-1.3-3.13L5.92,25.06v2H25V24.26H10.28Z" transform="translate(-5.92 -0.17)"/></g><g id="Calque_2" data-name="Calque 2"><path class="cls-2" d="M16.45,31.64,6.46,8.37h3.77l5,11.93c.3.7.54,1.34.74,1.92s.34,1.15.46,1.68c.13-.56.3-1.14.5-1.74s.44-1.22.72-1.86l5-11.93h3.76Z" transform="translate(-5.92 -0.17)"/></g><g id="Calque_5" data-name="Calque 5"><path class="cls-1" d="M19.53,27.05c-.15-.93,1.11-1.91,1.42-2.79H13c.16.93.89,1.89.56,2.79Z" transform="translate(-5.92 -0.17)"/></g><g id="Calque_3" data-name="Calque 3"><path class="cls-1" d="M24.31,2.93V.17H7V2.43l8.46,10.72-1.3,1.5c.38,1,1,2.28,1.3,3.13L19.14,13,11.26,3.08V2.93Z" transform="translate(-5.92 -0.17)"/></g></svg>